<svg xmlns="http://www.w3.org/2000/svg" viewBox="0 0 231 231"><path d="M33.83,33.83a115.5,115.5,0,1,1,0,163.34,115.49,115.49,0,0,1,0-163.34Z" style="fill:#181284;"/><path d="m115.5 51.75a63.75 63.75 0 0 0-10.5 126.63v14.09a115.5 115.5 0 0 0-53.729 19.027 115.5 115.5 0 0 0 128.46 0 115.5 115.5 0 0 0-53.729-19.029v-14.084a63.75 63.75 0 0 0 53.25-62.881 63.75 63.75 0 0 0-63.65-63.75 63.75 63.75 0 0 0-0.09961 0z" style="fill:#f5aa77;"/><path d="m141.75 195a114.79 114.79 0 0 1 38 16.5 115.53 115.53 0 0 1-128.46 0 114.79 114.79 0 0 1 38-16.5l26.23 13 26.27-13z" style="fill:#D67D1B;"/><polygon points="115.5 208.03 115.5 207.74 82.72 188.91 80.45 198.86 101.46 222.72" style="fill:#b8d0e0;"/><polygon points="115.5 208.03 115.5 207.74 148.28 188.91 150.55 198.86 129.54 222.72" style="fill:#b8d0e0;"/><path d="m32.902 67.662c-0.36295 1.7227-6.2342 30.695 5.6133 52.596 4.5843 8.4743 9.0081 13.239 12.75 15.893a67.7 67.7 0 0 1-3.4688-21.35 67.7 67.7 0 0 1 2.332-17.658c-4.4914-2.4646-10.868-6.9012-13.834-13.52-4.1626-9.285-3.6155-14.673-3.3926-15.961zm165.19 0c0.22292 1.2882 0.77005 6.6759-3.3926 15.961-2.9664 6.6183-9.3426 11.055-13.834 13.52a67.7 67.7 0 0 1 2.332 17.658 67.7 67.7 0 0 1-3.4688 21.35c3.7419-2.6532 8.1657-7.4183 12.75-15.893 11.847-21.9 5.9762-50.873 5.6133-52.596z" style="fill:#fff;"/><path d="m115.73 13.191c-7.3787-0.13351-13.509 5.7888-13.631 13.168-0.10128 5.8827 3.4508 10.518 8.0566 12.52 1.061 0.46115 2.1869 0.78009 3.3418 0.95703v8.4291c0.66778-0.02035 1.3358-0.03077 2.0039-0.03125 0.66547-9e-5 1.3309 0.0097 1.9961 0.0293v-8.4115c2.6002-0.38406 5.1586-1.5484 7.3086-3.625 4.2322-4.0878 4.9991-9.8755 3.1582-14.549-1.8407-4.6726-6.3502-8.3834-12.232-8.4863z" style="fill:#fff;"/><path d="m70.959 94.985h35.031c2.4086 1e-5 4.3612 1.9523 4.3612 4.3606l-2.5864 17.511c-0.3515 2.3799-1.7218 4.3606-3.8457 4.3606h-30.9c-2.1239-1e-5 -3.8457-1.9523-3.8457-4.3606l-2.5864-17.511c1e-5 -2.4082 1.9526-4.3606 4.3612-4.3606z" style="fill:#000;stroke-linecap:round;stroke-linejoin:round;stroke-width:3.0045px;stroke:#000;"/><path d="m160.05 94.985h-35.031c-2.4086 1e-5 -4.3612 1.9523-4.3612 4.3606l2.5864 17.511c0.35149 2.3799 1.7218 4.3606 3.8457 4.3606h30.9c2.1239-1e-5 3.8457-1.9523 3.8457-4.3606l2.5864-17.511c-1e-5 -2.4082-1.9526-4.3606-4.3612-4.3606z" style="fill:#000;stroke-linecap:round;stroke-linejoin:round;stroke-width:3.0045px;stroke:#000;"/><path d="m90.607 102.35a4.6337 4.6332 0 1 0 4.6892 4.6337 4.6337 4.6332 0 0 0-4.6892-4.6337zm49.72 0a4.6337 4.6332 0 1 0 4.6444 4.6337 4.6337 4.6332 0 0 0-4.6444-4.6337z" style="fill:#000;"/><path d="m70.66 94.985h-11.775" style="fill:none;stroke-linecap:round;stroke-linejoin:round;stroke-width:3.0045px;stroke:#000;"/><path d="m172.13 94.985h-19.484" style="fill:none;stroke-linecap:round;stroke-linejoin:round;stroke-width:3.0045px;stroke:#000;"/><path d="m109.32 106.2c4.2045-2.427 9.3036-1.913 12.353-0.0258" style="fill:none;stroke-linecap:round;stroke-linejoin:round;stroke-width:3.0045px;stroke:#000;"/><path d="m148.33 109.79-5.7626-8.2324" style="fill:none;stroke-linecap:round;stroke-linejoin:round;stroke-width:4;stroke:#fff;"/><path d="m156.27 105-2.403-3.4328" style="fill:none;stroke-linecap:round;stroke-linejoin:round;stroke-width:4;stroke:#fff;"/><path d="m82.748 114.34-8.9489-12.784" style="fill:none;stroke-linecap:round;stroke-linejoin:round;stroke-width:4;stroke:#fff;"/><path d="m91.408 109.79-5.7626-8.2324" style="fill:none;stroke-linecap:round;stroke-linejoin:round;stroke-width:4;stroke:#fff;"/><polygon points="121.61 160.74 109.39 160.74 115.5 171.31" style="fill:#666;"/><path d="m132.64 144.06a34.42 34.42 0 0 1-34.24 0" style="fill:none;stroke-linecap:round;stroke-linejoin:round;stroke-width:5.9998px;stroke:#000;"/></svg>