<?xml version="1.0" encoding="UTF-8" standalone="no"?>
<!-- Created with Inkscape (http://www.inkscape.org/) -->

<svg
   width="206.61003mm"
   height="185.60629mm"
   viewBox="0 0 206.61003 185.60629"
   version="1.1"
   id="svg1"
   xml:space="preserve"
   xmlns:inkscape="http://www.inkscape.org/namespaces/inkscape"
   xmlns:sodipodi="http://sodipodi.sourceforge.net/DTD/sodipodi-0.dtd"
   xmlns="http://www.w3.org/2000/svg"
   xmlns:svg="http://www.w3.org/2000/svg"><sodipodi:namedview
     id="namedview1"
     pagecolor="#ffffff"
     bordercolor="#000000"
     borderopacity="0.25"
     inkscape:showpageshadow="2"
     inkscape:pageopacity="0.0"
     inkscape:pagecheckerboard="0"
     inkscape:deskcolor="#d1d1d1"
     inkscape:document-units="mm"
     inkscape:export-bgcolor="#ffffff00" /><defs
     id="defs1" /><g
     inkscape:label="Capa 1"
     inkscape:groupmode="layer"
     id="layer1"
     transform="translate(-1.2015692,-38.896521)"><path
       style="fill:#ffffff;stroke-width:1.35768"
       d="m 98.289269,224.27209 c -0.83455,-0.1981 -2.46383,-0.91483 -3.62062,-1.59276 l -2.10326,-1.2326 -2.07533,0.27836 -2.07533,0.27836 -1.52208,-0.81969 c -3.605412,-1.94164 -5.308391,-12.76184 -2.732898,-17.36398 l 0.386747,-0.69109 0.791454,2.54 c 0.435298,1.397 0.913787,3.15032 1.063307,3.89627 0.15064,0.75152 1.61963,2.7913 3.29449,4.57459 1.66243,1.77007 3.12407,3.5227 3.24809,3.89471 l 0.22545,0.67639 1.30498,-1.0265 1.30497,-1.02649 1.63909,0.68486 c 1.99951,0.83544 3.268711,0.86147 5.347781,0.10969 l 1.59062,-0.57517 1.6527,0.59762 1.6527,0.59762 2.02993,-1.33958 2.02992,-1.33958 -3.56288,-0.29661 c -1.9596,-0.16314 -4.28017,-0.56727 -5.15685,-0.89806 l -1.59394,-0.60143 -1.18261,0.53883 c -0.650421,0.29636 -2.126691,0.53882 -3.280561,0.53882 h -2.09797 l -1.42396,-3.71196 c -2.61086,-6.80585 -4.84106,-14.52303 -5.39074,-18.65364 l -0.54382,-4.08661 0.57231,-4.54689 c 0.71993,-5.71952 1.64223,-8.85096 3.10516,-10.54279 l 1.1457,-1.325 1.76725,0.94346 c 0.97198,0.51889 1.87533,1.22509 2.00741,1.56932 0.13211,0.34421 1.18935,1.1821 2.34944,1.86197 l 2.109281,1.23611 1.58861,-0.29802 c 0.87374,-0.16392 3.0127,-1.15695 4.75328,-2.20674 4.42897,-2.67123 6.12935,-2.193 7.80522,2.1952 l 0.83171,2.17776 -0.28891,17.04404 -0.28891,17.04404 1.68059,-1.62519 c 2.10155,-2.03229 4.22257,-6.42669 5.04949,-10.46172 l 0.63305,-3.08899 0.34659,1.89161 c 0.19062,1.04037 0.49272,4.58781 0.67135,7.88318 l 0.32479,5.99159 -0.99172,1.9439 c -1.40901,2.76191 -4.44352,5.35676 -6.66027,5.69533 -1.00357,0.15326 -3.22563,0.69434 -4.93791,1.20236 -1.71228,0.50803 -4.29866,1.05213 -5.74751,1.20911 -1.44885,0.15698 -3.28087,0.35982 -4.07115,0.45077 -0.7903,0.091 -2.119701,0.003 -2.954231,-0.19478 z m 30.514151,-22.12538 c -0.98548,-2.20113 -0.9824,-2.21503 1.46967,-6.63043 7.97194,-14.35497 8.61749,-15.78797 10.20828,-22.66056 1.03905,-4.48886 0.96066,-8.36578 -0.2337,-11.55797 -1.24914,-3.33866 -1.48744,-3.46401 -3.24462,-1.70684 l -1.44028,1.44029 h -1.94754 c -1.07115,0 -3.08141,-0.43095 -4.46721,-0.95768 -1.38583,-0.52672 -2.57909,-0.95779 -2.65171,-0.95791 -0.0726,-1.4e-4 0.22044,0.68139 0.65126,1.51452 l 0.78333,1.51476 -0.18709,4.65787 -0.18709,4.65788 -2.01613,4.00525 c -1.10889,2.20288 -2.87716,4.97514 -3.92949,6.16056 l -1.91332,2.15531 0.35204,-1.67635 c 0.19362,-0.922 0.34544,-4.15498 0.33735,-7.1844 l -0.0147,-5.50802 -1.07673,-3.47246 c -1.24313,-4.00906 -1.54595,-4.1523 -3.32879,-1.5748 -1.70439,2.46412 -1.9343,2.41444 -2.32112,-0.50157 -0.38952,-2.93628 -0.91872,-3.21312 -3.56325,-1.86399 l -2.03039,1.03583 -1.09697,-0.58708 c -0.62264,-0.33322 -1.47339,-0.42881 -1.96747,-0.22105 -0.47877,0.20132 -2.30789,0.42083 -4.06474,0.48781 l -3.194251,0.12177 -1.00448,-1.15524 -1.00448,-1.15525 -0.92575,0.49544 c -0.50916,0.27248 -1.39424,1.78033 -1.96684,3.35072 l -1.04109,2.85531 -0.89596,-0.47951 c -0.49278,-0.26373 -1.70561,-1.6963 -2.69518,-3.18349 -2.306913,-3.46699 -2.65532,-3.53233 -3.863247,-0.72441 -1.299124,3.0199 -1.995084,7.43069 -2.019447,12.79847 l -0.01956,4.31063 -1.01352,-1.1974 c -3.742629,-4.42158 -5.536328,-12.88057 -3.990086,-18.81702 l 0.712021,-2.73366 -1.917689,-2.51579 c -1.054744,-1.38367 -2.371711,-3.91674 -2.926591,-5.62902 l -1.008864,-3.11322 -0.01221,-4.55012 c -0.0064,-2.50255 0.142164,-5.03506 0.330996,-5.62777 l 0.34331,-1.07766 h -0.813008 -0.812998 l 0.271223,-2.03557 c 0.149161,-1.11957 0.417868,-2.52053 0.597104,-3.11324 l 0.325899,-1.07766 h -1.02882 c -1.60045,0 -1.679084,-1.17672 -0.253656,-3.79571 l 1.308886,-2.40485 -1.086416,-0.87972 -1.086434,-0.87973 0.736246,-1.40829 c 0.404929,-0.77456 2.46434,-3.48912 4.576454,-6.03237 3.768305,-4.53748 5.822234,-7.79525 5.822234,-9.2347 v -0.72554 l -1.556609,0.2959 c -2.60419,0.49505 -3.997019,1.44654 -6.857638,4.68471 -3.460891,3.91766 -6.025805,5.64467 -8.478934,5.70898 l -1.873637,0.0491 -0.717954,-0.95096 -0.717953,-0.95095 0.259478,-2.93777 0.259468,-2.93781 -0.903948,-1.77303 c -0.921129,-1.80676 -0.829445,-3.38579 0.162404,-2.79675 0.301683,0.17917 1.138576,0.75532 1.859771,1.28037 1.771962,1.29002 1.968058,0.8828 0.755273,-1.56845 -2.064067,-4.171858 -1.101605,-7.895854 2.517631,-9.741354 2.060128,-1.050483 5.377845,-1.101991 6.212378,-0.09645 l 0.616195,0.742481 -0.80477,0.80478 -0.80478,0.804769 -0.943683,-0.589334 c -3.311326,-2.067952 -5.975711,2.347173 -4.110458,6.811374 2.229869,5.336824 9.797811,2.145814 9.848694,-4.152701 0.01396,-1.73096 0.945575,-1.342634 2.435488,1.015219 l 1.156804,1.830692 1.401489,-0.401948 c 2.776621,-0.796322 6.103664,0.823288 8.200704,3.992122 l 1.33785,2.02165 0.36879,-0.94354 c 1.81287,-4.638284 -0.64287,-9.139742 -6.772912,-12.414968 l -3.075431,-1.643179 0.845461,-0.32443 c 0.918834,-0.352585 5.686572,-0.02231 7.370962,0.510664 l 1.04519,0.330701 -0.2614,-0.999645 c -0.42506,-1.625397 -3.68303,-4.965567 -6.48525,-6.648857 l -2.608304,-1.566803 -4.169202,-0.674909 c -6.906088,-1.117951 -8.985914,-3.195183 -6.343476,-6.335552 1.070961,-1.272767 2.157818,-1.784499 6.017898,-2.833484 l 1.172609,-0.318652 -1.172609,-0.965175 C 75.907457,68.887008 73.97884,67.78355 72.266559,66.965724 L 69.153331,65.478768 H 64.84269 60.532059 l -2.738493,1.344767 c -5.640179,2.769681 -8.920512,7.361038 -10.244063,14.338241 -1.660921,8.755638 -4.490831,13.463089 -9.138822,15.20212 l -2.700374,1.010344 -0.393955,-0.621035 c -2.344281,-3.695546 0.830428,-17.381927 6.671193,-28.759901 1.153104,-2.246298 -5.630206,1.035083 -7.390396,3.575057 l -1.281676,1.849446 0.556652,0.556647 c 1.550953,1.550951 0.418364,3.678995 -3.294824,6.190707 l -1.177613,0.796561 0.894461,0.675031 0.894435,0.675023 -0.728018,1.402168 c -0.40042,0.771187 -1.406457,1.901563 -2.235664,2.511955 -1.599503,1.17742 -2.624797,3.166921 -2.201107,4.271052 l 0.255392,0.665554 1.068123,-0.748147 c 2.854476,-1.999345 3.095716,0.768093 0.520498,5.970797 l -1.771383,3.578681 0.0083,4.789604 c 0.0055,2.63429 0.185049,7.08246 0.40054,9.88484 l 0.391815,5.09523 2.125962,-1.62278 c 2.265508,-1.72929 3.280801,-2.06013 2.846147,-0.9274 -0.64392,1.67802 -1.348695,13.31393 -1.045772,17.2656 1.061392,13.84542 5.138377,24.38873 12.766625,33.01523 5.33665,6.035 21.404545,17.51499 24.51477,17.51499 2.106393,0 3.020461,4.25609 1.308675,6.09346 -2.512974,2.69735 -7.855823,1.52844 -14.932625,-3.26696 l -2.698032,-1.82825 -0.707366,0.81801 c -0.38906,0.44991 -0.929183,1.23346 -1.200268,1.74123 l -0.492894,0.92321 -0.952572,-1.88114 c -0.523933,-1.03462 -1.103782,-2.58159 -1.288582,-3.43774 -0.409199,-1.89585 -0.875738,-1.96985 -1.65373,-0.26237 l -0.589693,1.29426 -0.948339,-1.4978 c -0.521591,-0.82379 -1.08064,-2.31301 -1.242327,-3.3094 l -0.293997,-1.81161 -3.915501,-3.9155 -3.915509,-3.91553 -2.730954,-0.7939 c -6.302253,-1.83213 -10.79628,-9.9501 -10.825281,-19.55479 l -0.0083,-2.75401 h -0.626894 c -0.91618,0 -1.961171,0.95358 -3.348527,3.05559 l -1.22644,1.8582 -0.334118,-1.78111 c -0.183781,-0.9796 -0.230147,-3.23475 -0.103053,-5.01145 l 0.231121,-3.23032 -1.12685,0.21541 c -2.716242,0.51924 -4.341036,-2.19169 -4.5306211,-7.55926 l -0.093,-2.63429 2.8957171,-5.7475 c 1.592634,-3.16114 3.685647,-7.13908 4.65114,-8.83987 l 1.755424,-3.09235 -0.57939,-5.2467 C 16.748687,93.004617 21.315591,75.138433 28.922148,69.155118 l 1.325489,-1.042632 -1.316949,-1.900363 C 27.296325,63.853742 25.144155,62.18789 21.686634,60.604986 l -2.669675,-1.222217 -2.742974,0.19841 c -6.4107611,0.463712 -9.3649831,6.2962 -6.125157,12.092853 1.589824,2.844523 1.605289,2.724022 -0.2671091,2.081476 C -0.38237308,70.23323 -1.9740621,55.574792 7.4233379,51.115435 l 1.684815,-0.799496 7.3084271,0.505864 c 9.97465,0.69041 13.84777,1.547189 20.496869,4.534136 l 2.724553,1.223938 -0.276677,-3.300148 -0.276669,-3.300146 1.623279,-0.990023 c 0.8928,-0.544513 2.321865,-1.122049 3.175701,-1.283414 1.728039,-0.326578 1.631185,-0.928817 -0.281821,-1.752359 l -1.270611,-0.546996 1.52288,-0.169728 c 0.837573,-0.09335 2.661282,0.03718 4.052696,0.290085 l 2.529835,0.459813 0.497412,-0.616149 c 0.664792,-0.823477 7.974928,-1.684697 14.299928,-1.684697 5.78001,0 5.961422,-0.146717 2.961064,-2.394797 -2.978227,-2.231491 -2.80205,-2.394797 2.583528,-2.394797 11.603778,0 24.826362,2.334979 29.554123,5.218969 l 1.48426,0.905418 0.65349,3.044539 0.65348,3.044539 -0.11283,9.938407 c -0.0621,5.466124 -0.0196,9.938407 0.0941,9.938407 0.11378,0 2.21605,-1.508722 4.67163,-3.352715 5.86021,-4.400659 7.20797,-4.458629 8.52584,-0.366709 1.52149,4.724124 5.93515,4.957648 12.40523,0.656353 1.79275,-1.191818 4.96786,-2.871004 7.0558,-3.731525 l 3.79625,-1.564582 6.5679,-0.01127 6.5679,-0.01127 -1.96614,-2.00335 c -2.40875,-2.454322 -6.81043,-4.668119 -10.83221,-5.447984 l -3.01526,-0.584691 -3.44056,0.568193 c -1.89228,0.312507 -5.06158,1.299616 -7.04288,2.193577 -10.20827,4.605993 -17.73164,2.877795 -17.73164,-4.073156 0,-1.08411 0.21352,-2.370037 0.47445,-2.857615 l 0.47445,-0.886506 6.35072,0.255341 6.35073,0.255339 2.91808,-0.767795 c 1.60493,-0.422286 3.97579,-1.245328 5.26854,-1.82898 l 2.35049,-1.061187 -2.63429,-0.380536 c -9.57169,-1.382681 -12.7457,-1.944388 -13.13672,-2.324821 -0.63744,-0.620183 3.59353,-2.379582 7.21356,-2.999665 l 3.0254,-0.518228 6.60856,0.591266 c 13.5266,1.210218 22.85186,5.475747 23.87322,10.919987 l 0.30225,1.611102 h 0.88103 c 3.72383,0 8.39146,2.421877 9.14173,4.743333 l 0.21723,0.672176 3.5677,-0.848862 c 2.14116,-0.509446 6.3541,-0.944458 10.53634,-1.087941 l 6.96862,-0.239077 4.04744,1.441241 c 2.22609,0.792683 5.3222,1.91014 6.88023,2.483239 1.55805,0.573097 3.87502,1.16543 5.14882,1.316293 l 2.316,0.274297 v 1.934857 c 0,1.064171 -0.26339,2.66326 -0.5853,3.553528 l -0.58533,1.618671 -0.9713,-0.332475 c -0.53421,-0.182844 -6.03628,-0.481479 -12.22683,-0.663615 L 182.1873,67.79988 178.36406,66.535149 c -4.67748,-1.54731 -4.80048,-1.453898 -4.78973,3.637507 l 0.008,3.927467 1.02551,1.915837 c 1.81215,3.38545 5.31967,6.038812 10.13137,7.664157 l 3.19533,1.079345 1.95287,3.861201 c 1.07409,2.123657 2.45959,5.867956 3.07888,8.320662 l 1.12601,4.459495 -0.003,6.46595 -0.003,6.46596 -1.01281,4.11414 c -0.55703,2.26279 -1.42866,5.20858 -1.93691,6.54623 l -0.92413,2.43206 0.99172,2.7935 0.99173,2.79347 -0.0202,6.70545 c -0.0108,3.68799 -0.34535,8.75297 -0.74273,11.25553 -0.39738,2.50256 -0.661,6.65156 -0.58584,9.21997 0.0781,2.66655 -0.055,4.66985 -0.31,4.66985 -0.75731,0 -2.41339,-1.91888 -2.92657,-3.39097 l -0.48756,-1.39863 h -1.17434 c -2.05943,0 -4.10356,1.45366 -9.77476,6.95118 -6.95912,6.74603 -9.65703,7.58537 -18.27138,5.68435 l -1.29504,-0.2858 -0.30408,1.36876 c -0.65074,2.92936 -1.7693,5.96383 -2.44888,6.6434 l -0.71172,0.71171 -2.08497,-1.43448 -2.08496,-1.43448 -0.52842,1.60114 c -1.55571,4.71386 -8.20377,14.29287 -14.09359,20.30709 -4.49727,4.59225 -4.38669,4.55316 -5.54744,1.96058 z m 21.62347,-35.00965 c 0.7081,-1.11909 2.05517,-2.77747 2.99349,-3.68528 l 1.70604,-1.65058 v 1.77031 c 0,2.78037 1.11911,1.91354 5.90778,-4.57589 1.68073,-2.27768 2.23453,-2.2678 2.23453,0.04 0,2.94744 0.48942,2.70523 2.99126,-1.48035 4.8331,-8.08582 9.59954,-9.73241 6.96501,-2.40609 -0.40554,1.12774 -0.58193,2.05043 -0.39199,2.05043 0.90296,0 6.25949,-3.91935 7.39983,-5.41441 l 1.28604,-1.68608 0.93289,-4.63745 c 1.28301,-6.37797 2.2515,-9.53523 3.35541,-10.93864 l 0.93704,-1.19124 -2.96851,-4.61454 -2.96851,-4.61453 -1.07174,3.18215 c -1.76375,5.23687 -4.43507,8.65057 -8.08494,10.3318 -3.06205,1.41046 -3.1441,1.21306 -1.36624,-3.28737 2.25158,-5.69964 4.63068,-13.65439 5.98058,-19.99655 l 1.12138,-5.26856 -0.022,-8.3818 -0.022,-8.381791 -1.29613,-3.907062 c -2.43959,-7.353801 -6.64452,-12.098098 -13.58431,-15.326757 -4.13596,-1.924206 -3.884,-1.906642 -4.07073,-0.283777 l -0.15156,1.317139 -1.78026,0.147707 -1.78026,0.147709 -3.45954,-1.704327 -3.45955,-1.704326 -2.18407,0.0017 c -2.62281,0.0022 -4.92293,1.275311 -6.25183,3.460507 l -0.94579,1.555218 3.75088,0.535929 c 6.61298,0.944868 11.56464,4.116772 13.87403,8.887348 3.43149,7.088502 -4.30203,9.419751 -8.53385,2.572509 -1.75275,-2.835972 -5.4692,-3.310481 -7.66039,-0.978056 l -1.03947,1.106454 -1.81126,-0.242948 c -2.73582,-0.366948 -6.93535,1.051107 -9.23074,3.116938 l -1.97441,1.776967 0.35517,-1.43688 c 0.72964,-2.95178 3.83879,-4.887826 8.53671,-5.315722 1.64966,-0.150263 3.27534,-0.358517 3.61263,-0.462792 l 0.61325,-0.189585 -0.97863,-1.918276 c -1.24064,-2.431879 -2.49235,-3.241094 -6.02293,-3.893759 -3.40264,-0.629013 -4.78991,-1.310226 -6.64775,-3.26433 -1.73026,-1.819907 -1.48802,-1.829725 -4.85326,0.196721 l -2.78386,1.676357 h -1.98952 c -1.96832,0 -3.13428,-0.755458 -3.6961,-2.394797 l -0.24622,-0.718439 -0.28232,0.718439 c -2.41726,6.150885 -7.45249,19.83705 -7.33968,19.949855 0.0824,0.08237 0.82831,-0.10634 1.65761,-0.419355 3.43299,-1.295809 4.91491,0.479523 9.26561,11.100092 l 2.24701,5.48521 0.31576,-2.37196 c 0.94283,-7.08272 3.19512,-11.232755 6.09618,-11.232755 h 1.58031 l 1.14338,-2.155311 c 1.33867,-2.523406 1.9682,-2.738538 1.9682,-0.672598 0,3.27981 2.72383,5.701674 6.41255,5.701674 h 2.19361 l 1.54046,-1.376414 1.54047,-1.3764 0.0238,-2.514416 0.0238,-2.514416 -0.83103,-0.532583 -0.83102,-0.532592 -1.58543,0.853817 c -1.75306,0.944086 -3.03428,0.706611 -3.46223,-0.641734 -0.15413,-0.485584 -0.63188,-0.950616 -1.0617,-1.033411 l -0.78147,-0.15052 0.8382,-0.838179 c 1.04854,-1.048545 4.89764,-1.127519 7.24062,-0.148564 3.99593,1.669617 4.70192,7.671104 1.33946,11.386592 -1.73036,1.91203 2.39236,-0.10658 5.93194,-2.904464 l 2.42036,-1.913198 1.68073,1.759028 c 5.4323,5.685364 3.19975,8.108914 -9.6125,10.434964 -5.70593,1.03591 -5.67488,0.98236 -2.16635,3.73607 8.33288,6.54019 16.53651,7.60765 20.9512,2.72618 3.31328,-3.66361 1.95343,3.43749 -1.92857,10.07087 -7.48322,12.78699 -17.79876,18.02018 -24.07206,12.21205 l -1.61922,-1.49915 0.2996,4.78959 c 0.16478,2.63429 0.30071,6.43675 0.30206,8.44994 l 0.003,3.66034 4.91639,-0.25091 4.91639,-0.25093 1.76891,1.95796 c 2.11082,2.33643 3.70874,7.08532 3.86132,11.47558 0.12261,3.52731 0.20629,3.56942 1.86958,0.9407 z m -32.18033,-11.38945 c 0,-0.2717 -0.32331,-0.61806 -0.71845,-0.76968 -1.05591,-0.40519 -0.8793,-1.29211 0.5186,-2.60425 0.68035,-0.63864 2.0813,-2.42502 3.11322,-3.96975 l 1.87622,-2.80859 v -1.8082 c 0,-1.01385 -0.36821,-2.25671 -0.83819,-2.82916 l -0.83817,-1.02097 -1.53834,0.58705 c -2.84076,1.08407 -2.45938,-0.21847 1.89756,-6.48095 l 1.31714,-1.8932 v -2.05675 -2.05674 l -1.15372,-1.34127 -1.15371,-1.34129 -0.30742,1.91328 c -0.16907,1.05229 -0.70898,2.7968 -1.1998,3.87669 l -0.8924,1.96342 -2.31632,1.07711 c -3.24887,1.51073 -4.25419,2.58572 -6.19839,6.62784 -0.93619,1.94641 -1.81164,3.42941 -1.94548,3.29559 -0.13386,-0.13387 -0.60164,-0.96087 -1.03958,-1.83785 l -0.79625,-1.59452 -4.66985,0.0846 c -4.884791,0.0883 -5.077221,0.0153 -3.936181,-1.49319 0.38677,-0.51137 0.7032,-1.53102 0.7032,-2.26594 v -1.33621 l -1.21845,-0.30582 c -0.67014,-0.16818 -2.44829,0.0312 -3.95141,0.44333 -3.32656,0.91183 -4.93057,0.63648 -6.87543,-1.18029 l -1.485245,-1.38744 0.323833,-2.02699 c 0.497678,-3.1151 2.750602,-3.27031 6.144992,-0.42336 0.46262,0.388 0.90503,0.61698 0.98313,0.50884 0.0781,-0.10821 0.52074,-0.80141 0.98361,-1.54058 l 0.84155,-1.34395 1.52802,0.14656 1.52801,0.14654 0.14911,-1.80358 0.14908,-1.80359 -1.42939,-1.42939 -1.4294,-1.42939 h -3.63607 -3.63608 l -0.94908,-1.55662 c -0.522009,-0.85614 -0.958665,-2.20322 -0.970356,-2.9935 l -0.0213,-1.43687 -1.400653,1.63817 c -2.091516,2.44624 -4.664052,7.99203 -5.814318,12.53438 l -1.019995,4.0279 0.282353,5.74752 c 0.442818,9.01369 1.733623,12.32395 5.020062,12.8739 0.975742,0.16328 2.088807,0.49939 2.473478,0.74689 l 0.699394,0.45003 -0.893369,0.98716 -0.893369,0.98715 h 17.316764 c 11.57651,0 17.31677,-0.16375 17.31677,-0.49399 z m -53.562866,7.60859 c -3.372476,-1.66934 -5.534142,-5.91911 -6.786019,-13.34107 -1.828429,-10.84017 -5.920291,-15.02335 -5.973443,-6.10673 -0.02553,4.28079 -2.840187,0.20745 -3.802301,-5.5026 -0.50676,-3.00755 -1.719288,-5.13076 -1.719288,-3.01057 0,1.27748 -0.989764,0.30088 -1.992513,-1.966 -1.080217,-2.44201 -1.462675,-2.57113 -2.299623,-0.77637 l -0.614194,1.31712 -0.38693,-0.9579 c -0.212818,-0.52687 -0.402073,-2.19047 -0.420595,-3.69691 l -0.0337,-2.73899 -0.787368,0.30215 -0.787387,0.30215 0.259836,-5.70547 c 0.247788,-5.44093 1.722989,-12.17142 2.667746,-12.17142 0.196023,0 0.723721,0.99108 1.172664,2.20238 2.345548,6.32861 7.915486,12.09406 15.596435,16.1439 l 4.285874,2.25974 -0.415885,1.79071 c -0.91809,3.95317 1.113984,19.47996 3.66482,28.00224 1.621525,5.41745 1.678203,5.29024 -1.628155,3.65364 z"
       id="path2"
       inkscape:export-filename="path2.svg"
       inkscape:export-xdpi="96"
       inkscape:export-ydpi="96" /></g></svg>
