<?xml version="1.0" encoding="UTF-8" standalone="no"?>
<!-- Created with Inkscape (http://www.inkscape.org/) -->

<svg
   width="199.2485mm"
   height="225.78534mm"
   viewBox="0 0 199.2485 225.78534"
   version="1.1"
   id="svg1"
   xml:space="preserve"
   sodipodi:docname="path1.svg"
   inkscape:version="1.3 (0e150ed6c4, 2023-07-21)"
   xmlns:inkscape="http://www.inkscape.org/namespaces/inkscape"
   xmlns:sodipodi="http://sodipodi.sourceforge.net/DTD/sodipodi-0.dtd"
   xmlns="http://www.w3.org/2000/svg"
   xmlns:svg="http://www.w3.org/2000/svg"><sodipodi:namedview
     id="namedview1"
     pagecolor="#ffffff"
     bordercolor="#000000"
     borderopacity="0.25"
     inkscape:showpageshadow="2"
     inkscape:pageopacity="0.0"
     inkscape:pagecheckerboard="0"
     inkscape:deskcolor="#d1d1d1"
     inkscape:document-units="mm"
     inkscape:zoom="0.91051638"
     inkscape:cx="376.16017"
     inkscape:cy="426.68096"
     inkscape:window-width="1920"
     inkscape:window-height="991"
     inkscape:window-x="-9"
     inkscape:window-y="-9"
     inkscape:window-maximized="1"
     inkscape:current-layer="layer1" /><defs
     id="defs1" /><g
     inkscape:label="Capa 1"
     inkscape:groupmode="layer"
     id="layer1"
     transform="translate(-4.796146,-37.567473)"><path
       style="fill:#ffffff"
       d="m 101.45862,261.54293 c -2.800978,-2.08182 -15.050292,-11.10335 -25.149902,-18.52271 -3.86536,-2.83957 -7.50151,-5.67252 -8.08034,-6.29544 -0.57883,-0.62293 -2.41826,-2.59388 -4.08763,-4.37989 -19.62399,-20.99515 -32.23341,-34.58874 -32.43645,-34.96814 -0.21356,-0.39904 -3.3138,-8.7528 -7.23776,-19.50256 -1.08546,-2.97364 -5.73986,-15.66616 -8.79651,-23.98806 -0.84646,-2.30453 -2.01827,-5.49511 -2.60403,-7.09018 -0.58577,-1.59507 -1.06503,-3.23402 -1.06503,-3.64211 0,-0.40809 1.98817,-12.60079 4.41815,-27.0949 l 4.41815,-26.352923 -2.56501,-4.153907 c -3.15623,-5.111344 -5.84964,-9.461608 -10.1599395,-16.409814 -2.38053,-3.837412 -3.31468,-5.522756 -3.31617,-5.982859 -0.002,-0.497438 1.37234,-2.649361 6.1499695,-9.632276 3.38363,-4.945455 7.04333,-10.313785 8.13267,-11.929621 2.30065,-3.412598 2.74444,-3.880647 3.67945,-3.880647 0.50357,0 5.42964,2.641624 19.16653,10.278132 l 18.48877,10.278131 3.18619,-0.332313 c 1.75241,-0.182772 7.28721,-0.752581 12.29957,-1.266243 5.01235,-0.513662 13.21163,-1.359646 18.22062,-1.879965 5.009004,-0.520319 9.630272,-0.946035 10.269512,-0.946035 0.63923,0 6.29855,0.523035 12.57627,1.1623 6.27771,0.639266 15.93606,1.619475 21.46299,2.178243 l 10.04898,1.015941 1.62853,-0.924061 c 0.89569,-0.508233 2.54874,-1.428335 3.67345,-2.044671 1.12471,-0.616336 8.67692,-4.810837 16.78269,-9.321114 8.10577,-4.510276 14.95855,-8.255917 15.22841,-8.323646 0.28735,-0.07212 0.7347,0.02161 1.07968,0.226231 0.80941,0.480078 17.02995,24.202134 17.1674,25.106813 0.0887,0.583648 -0.62667,1.842512 -5.79514,10.198211 -9.59567,15.513008 -10.13415,16.40717 -10.10597,16.78123 0.0148,0.19683 0.4081,2.46454 0.87394,5.03937 3.87761,21.432623 6.6787,36.942683 7.46673,41.344463 0.51571,2.88066 1.03971,5.62561 1.16443,6.09989 0.21283,0.80928 0.14689,1.07342 -1.07214,4.2948 -0.71441,1.88787 -2.88284,7.72205 -4.81875,12.96486 -3.56667,9.65925 -10.23453,27.68144 -12.52848,33.86253 -0.68989,1.85895 -1.3649,3.58646 -1.50001,3.83891 -0.13511,0.25246 -0.92211,1.19018 -1.74889,2.08383 -0.82678,0.89365 -5.79281,6.24031 -11.03561,11.88148 -5.24281,5.64116 -12.92396,13.91212 -17.06923,18.37991 -6.40358,6.9018 -7.86841,8.3683 -9.74187,9.75294 -2.0121,1.48711 -6.7829,4.97923 -13.62292,9.97167 -1.44033,1.05128 -5.63562,4.11586 -9.32287,6.81018 -10.44917,7.63534 -9.69008,7.12348 -10.54953,7.11354 -0.62419,-0.007 -1.20351,-0.33578 -3.1729,-1.79952 z m 8.74693,-6.33471 c 16.74588,-12.27114 23.86489,-17.46859 24.14325,-17.62653 0.17188,-0.0975 0.26616,-0.21416 0.2095,-0.2592 -0.0566,-0.045 -6.79687,-1.33565 -14.97825,-2.86803 l -14.87525,-2.78614 -7.227282,1.37867 c -3.97501,0.75827 -10.52696,1.99639 -14.55988,2.75139 -4.03293,0.755 -7.46722,1.42162 -7.63176,1.48138 -0.19453,0.0707 0.20847,0.47843 1.15226,1.16592 0.79829,0.5815 2.44133,1.78896 3.65121,2.68325 1.20988,0.89429 6.34793,4.67125 11.4179,8.39324 5.06996,3.722 10.066602,7.40773 11.103642,8.19051 1.03704,0.78279 1.95632,1.42894 2.04284,1.4359 0.0865,0.007 2.58485,-1.76621 5.55182,-3.94036 z M 85.321228,231.49484 c 6.74388,-1.27411 12.85082,-2.42693 13.570994,-2.56181 0.72016,-0.13488 1.307098,-0.29445 1.304298,-0.35459 -0.003,-0.0601 -1.854742,-1.57063 -4.115442,-3.35664 -2.2607,-1.78601 -6.43013,-5.09086 -9.26541,-7.3441 -2.83528,-2.25324 -6.42732,-5.10647 -7.98232,-6.34051 -1.555,-1.23404 -2.8504,-2.17162 -2.87867,-2.08352 -0.0283,0.0881 -0.75901,5.39251 -1.62386,11.78758 -0.86485,6.39506 -1.62175,11.83952 -1.682,12.09877 -0.0685,0.29461 -0.012,0.47139 0.15063,0.47139 0.1431,0 5.7779,-1.04246 12.52178,-2.31657 z m 50.021882,-9.77601 c -0.90397,-6.65091 -1.67585,-12.12485 -1.71531,-12.1643 -0.0625,-0.0625 -2.16577,1.57351 -11.23516,8.73953 -1.10359,0.87198 -4.47104,3.51808 -7.48322,5.88022 -3.01218,2.36215 -5.47962,4.34764 -5.48319,4.41221 -0.004,0.0646 4.91943,1.04448 10.94001,2.17758 6.02058,1.13309 12.03069,2.27264 13.3558,2.53231 1.3251,0.25967 2.60173,0.48179 2.83696,0.49358 0.41572,0.0208 0.38172,-0.31666 -1.21589,-12.07113 z m -64.575092,-2.21628 c 0.95387,-7.07343 1.55445,-12.17846 1.4442,-12.27593 -0.1038,-0.0918 -7.25944,-1.73949 -15.90143,-3.66162 -8.64198,-1.92213 -16.07115,-3.5777 -16.50926,-3.67905 -0.43811,-0.10136 -0.76807,-0.10658 -0.73326,-0.0116 0.0348,0.095 1.90686,2.13666 4.16009,4.53708 2.25324,2.40042 7.56894,8.08832 11.81267,12.63976 4.24373,4.55145 8.86432,9.50095 10.26797,10.99889 1.40366,1.49795 2.77587,2.98379 3.04935,3.30187 0.27349,0.31809 0.56013,0.50664 0.63699,0.41901 0.0769,-0.0876 0.87457,-5.60842 1.77268,-12.26841 z m 80.552242,0.96699 c 5.81894,-6.28641 12.46541,-13.45372 14.76994,-15.92736 2.30453,-2.47364 4.21693,-4.56986 4.24978,-4.65828 0.0554,-0.14899 -6.62261,1.30705 -23.00027,5.01491 -3.62963,0.82174 -7.37711,1.64815 -8.32773,1.83646 -1.62469,0.32184 -1.72833,0.37448 -1.72724,0.87722 6.4e-4,0.29416 0.38162,3.31599 0.84662,6.71517 0.465,3.39918 0.9808,7.17023 1.14623,8.3801 0.16543,1.20988 0.50955,3.77891 0.76473,5.70895 0.25517,1.93005 0.51662,3.5032 0.581,3.49591 0.0644,-0.007 4.87801,-5.15668 10.69694,-11.44308 z m -43.4619,4.438 c 1.66534,-1.3251 4.37132,-3.47444 6.0133,-4.77631 15.71862,-12.46273 20.79625,-16.57428 24.66894,-19.97537 4.78219,-4.19983 18.46878,-16.20544 22.12077,-19.4039 1.19985,-1.05084 2.18154,-1.96589 2.18154,-2.03344 0,-0.14901 -21.77863,-2.80934 -21.91142,-2.67655 -0.13603,0.13603 -7.83796,17.77198 -7.83796,17.94742 0,0.33616 -1.55377,1.48958 -9.53237,7.07627 -4.60906,3.2273 -10.54846,7.38811 -13.19867,9.24624 -3.97926,2.78997 -4.94628,3.3791 -5.55182,3.38228 -0.60464,0.003 -1.4315,-0.48472 -4.71382,-2.78146 -16.763212,-11.72977 -22.482782,-15.7608 -22.910622,-16.1469 -0.27161,-0.24512 -2.54817,-4.55056 -5.05902,-9.56764 l -4.56517,-9.12197 -10.39181,1.25915 c -5.7155,0.69254 -10.39181,1.31907 -10.39181,1.3923 0,0.0732 2.09765,1.973 4.66144,4.22172 2.56379,2.24871 9.09241,7.97583 14.50806,12.72692 5.41564,4.7511 11.96784,10.32062 14.56043,12.37672 2.5926,2.0561 9.09766,7.22622 14.45569,11.48915 5.358032,4.26293 9.769902,7.75615 9.804162,7.76272 0.0343,0.007 1.42483,-1.07224 3.09016,-2.39735 z m 6.98723,-22.34938 c 5.31257,-3.72416 9.5477,-6.80837 9.4114,-6.8538 -0.13631,-0.0454 -4.73247,0.12904 -10.21371,0.38772 l -9.96587,0.47034 -9.480532,-0.49422 c -5.21429,-0.27182 -9.45672,-0.42522 -9.42762,-0.34089 0.11581,0.33563 19.525802,13.79058 19.762922,13.69959 0.13981,-0.0537 4.60084,-3.14458 9.91341,-6.86874 z m -47.646482,-0.76991 c -0.22725,-0.21353 -3.14719,-2.77859 -6.48876,-5.70012 -3.34157,-2.92153 -6.73551,-5.89723 -7.5421,-6.61267 -0.80658,-0.71544 -3.46688,-3.05389 -5.91176,-5.19655 l -4.44524,-3.89575 -0.29499,0.57866 c -0.88399,1.7341 -6.45282,14.13108 -6.38035,14.20355 0.098,0.0979 30.6966,6.9619 31.16796,6.99166 0.22862,0.0144 0.20152,-0.081 -0.10476,-0.36878 z m 84.330662,-1.70466 c 4.66667,-1.04617 11.45456,-2.56737 15.08419,-3.38045 3.62963,-0.81309 6.63722,-1.5155 6.68353,-1.56093 0.0686,-0.0673 -3.02686,-7.13916 -5.89111,-13.45867 l -0.59985,-1.32346 -1.40568,1.23702 c -0.77312,0.68036 -3.80997,3.35 -6.74856,5.93252 -19.16226,16.84041 -16.794,14.70213 -16.13114,14.56468 0.28807,-0.0597 4.34194,-0.96455 9.00862,-2.01071 z m -62.117552,-9.23547 c 11.189342,-2.51284 13.012612,-2.92823 13.264422,-3.02196 0.1631,-0.0607 0.24847,-0.34716 0.20951,-0.70298 -0.0549,-0.50104 -1.02003,-1.3962 -5.827082,-5.4044 -5.29616,-4.41601 -5.92194,-4.87434 -7.75064,-5.67649 -1.09412,-0.47994 -2.05322,-0.80619 -2.13134,-0.725 -0.1818,0.18896 -6.04023,15.84819 -6.04023,16.14518 0,0.13527 0.71913,0.24772 1.83315,0.28666 2.22788,0.0779 1.84492,0.13143 6.44221,-0.90101 z m 39.048792,0.73348 c 0.0447,-0.0428 -1.21763,-3.54508 -2.80521,-7.78296 -1.58757,-4.23787 -2.96289,-7.91113 -3.05626,-8.16279 -0.16901,-0.45552 -0.17853,-0.4538 -2.13382,0.38606 -1.77468,0.76229 -2.42713,1.22748 -6.7669,4.82472 -2.64157,2.1896 -5.29254,4.37278 -5.89105,4.85151 -0.87334,0.69855 -1.0905,0.99692 -1.09989,1.51114 l -0.0117,0.64074 4.03293,0.89266 c 2.21811,0.49096 6.20128,1.3815 8.85149,1.97896 4.33614,0.97754 5.01782,1.07886 6.80883,1.01199 1.09465,-0.0409 2.02686,-0.10928 2.07157,-0.15203 z m -91.665702,-7.17361 c 1.69289,-3.72329 3.01431,-6.87265 2.93648,-6.99858 -0.40738,-0.65915 -20.18872,-24.25114 -20.18872,-24.07784 0,0.1125 1.39891,4.00721 3.1087,8.65491 1.70978,4.6477 4.84438,13.18311 6.96578,18.96758 2.1214,5.78447 3.91169,10.45114 3.97843,10.37038 0.0667,-0.0808 1.50643,-3.19316 3.19933,-6.91645 z m 139.455772,6.44909 c 0,-0.10508 1.6881,-4.74262 3.75133,-10.30564 7.91294,-21.33545 10.08542,-27.24916 10.02923,-27.30062 -0.0575,-0.0526 -19.49193,23.22467 -20.02967,23.99017 -0.2458,0.34991 0.0207,1.06432 2.2825,6.11888 1.40843,3.14749 2.78382,6.22261 3.05642,6.8336 0.27259,0.61098 0.58891,1.05323 0.70291,0.98277 0.11401,-0.0705 0.20728,-0.21408 0.20728,-0.31916 z m -95.024992,-10.56883 3.06094,-8.16582 -0.0562,-4.6998 -0.0562,-4.69981 -6.54696,5.832 c -3.60083,3.2076 -6.54696,5.91014 -6.54696,6.00564 0,0.25824 6.92549,14.05661 7.01105,13.96886 0.0404,-0.0414 1.45078,-3.74986 3.1343,-8.24107 z m 51.312482,5.49014 c 0.55897,-1.29381 1.96143,-4.53141 3.11657,-7.19466 l 2.10026,-4.84228 -0.91679,-0.83872 c -0.50424,-0.46129 -3.2737,-2.93322 -6.15436,-5.49319 l -5.23757,-4.65448 -0.0563,4.73083 -0.0563,4.73083 2.98934,7.96132 c 1.64414,4.37872 3.03648,7.95938 3.0941,7.95702 0.0576,-0.002 0.56209,-1.06286 1.12106,-2.35667 z m -19.34169,-10.80273 8.26925,-3.52703 0.0555,-5.97664 0.0555,-5.97664 -4.16864,-2.75223 -4.16865,-2.75224 h -8.45187 -8.451872 l -4.14602,2.75702 -4.14602,2.75702 0.0555,5.97207 0.0555,5.97207 8.1706,3.51218 c 4.493832,1.93169 8.267632,3.51876 8.386212,3.52681 0.11859,0.008 3.93678,-1.57252 8.48486,-3.51239 z m -64.943242,-0.34004 c 1.32032,-0.16804 5.98308,-0.74212 10.36168,-1.27575 4.37861,-0.53362 7.98518,-0.99373 8.01461,-1.02245 0.0294,-0.0287 0.0294,-8.44577 0,-18.70453 l -0.0535,-18.6523 -3.33262,6.31023 c -9.0583,17.15166 -11.33316,21.45552 -14.40059,27.24481 -1.82699,3.44817 -3.32181,6.30003 -3.32181,6.33746 0,0.10401 0.15515,0.0905 2.73224,-0.23747 z m 115.509532,-0.37535 c -0.19114,-0.37449 -2.96612,-5.63039 -6.16662,-11.67978 -3.2005,-6.04939 -7.80732,-14.76993 -10.23738,-19.37899 l -4.41829,-8.38011 -3.6e-4,18.78779 -3.6e-4,18.78779 1.09989,0.13643 c 10.60881,1.31595 19.21689,2.36268 19.59388,2.38258 0.4702,0.0248 0.47198,0.0158 0.12924,-0.65571 z M 43.672298,170.27972 c 0.98175,-1.87243 5.81915,-11.04079 10.74977,-20.37414 4.93062,-9.33334 9.57259,-18.12411 10.3155,-19.53505 0.7429,-1.41093 1.31915,-2.6491 1.28054,-2.7515 -0.0693,-0.18381 -6.69752,-5.43431 -7.46656,-5.91458 -0.3425,-0.2139 -1.55899,0.37891 -8.86098,4.31806 -4.65518,2.51129 -13.88485,7.48611 -20.51038,11.05515 -6.62552,3.56903 -12.12906,6.56503 -12.23008,6.65778 -0.17772,0.16315 24.46943,29.9487 24.78215,29.9487 0.0853,0 0.95829,-1.53199 1.94004,-3.40442 z M 180.35563,158.87775 c 6.78778,-8.14351 12.36904,-14.87286 12.40281,-14.95411 0.0338,-0.0813 -1.42752,-0.95104 -3.2473,-1.93287 -1.81977,-0.98183 -7.97535,-4.30285 -13.67906,-7.38005 -5.70371,-3.0772 -13.50775,-7.29098 -17.34232,-9.36396 -3.83456,-2.07297 -7.09396,-3.72221 -7.24312,-3.66498 -0.14915,0.0572 -1.9859,1.44336 -4.08166,3.08028 l -3.81048,2.9762 0.81907,1.49654 c 0.45049,0.82309 1.66268,3.09923 2.69375,5.05808 1.03107,1.95885 3.2219,6.107 4.86851,9.21812 1.64661,3.11111 4.31212,8.15489 5.92336,11.20839 3.32735,6.30577 4.20485,7.96578 6.70011,12.67491 0.97689,1.84363 2.13662,4.03555 2.57717,4.87094 0.44055,0.83539 0.86327,1.5189 0.93937,1.5189 0.0761,0 5.69201,-6.66288 12.47979,-14.80639 z m -102.449722,4.39581 c 6.49632,-5.78041 7.4649,-6.56034 11.24398,-9.05412 l 4.1353,-2.72884 -2.18366,-4.2493 c -5.43431,-10.57489 -8.47107,-16.51833 -10.54735,-20.64289 -1.23259,-2.44856 -2.29023,-4.45193 -2.35031,-4.45193 -0.0601,0 -1.82878,1.3307 -3.93044,2.95711 l -3.8212,2.95712 v 20.8389 c 0,11.46139 0.0776,20.80747 0.1725,20.76906 0.0949,-0.0384 3.37141,-2.91621 7.28118,-6.39511 z M 139.1691,148.91044 V 128.1173 l -0.68088,-0.54217 c -2.43068,-1.93551 -7.10261,-5.46355 -7.15098,-5.40012 -0.032,0.0419 -2.21132,4.27151 -4.84302,9.39909 -2.6317,5.12758 -5.99451,11.66847 -7.47291,14.53531 -1.4784,2.86684 -2.68122,5.27089 -2.67293,5.34232 0.008,0.0714 1.91738,1.37805 4.24243,2.9036 4.25041,2.78884 6.12951,4.35542 16.79752,14.00386 0.80659,0.7295 1.53723,1.33042 1.62365,1.33538 0.0864,0.005 0.15712,-9.3479 0.15712,-20.78413 z m -23.77164,-3.97703 c 1.49414,-2.90753 4.29853,-8.35198 6.23196,-12.09878 5.10363,-9.89029 6.74695,-13.17317 6.63765,-13.2601 -0.0533,-0.0424 -5.3519,-4.18993 -11.77473,-9.2168 l -11.67788,-9.13977 -10.319902,8.08895 c -12.61105,9.8848 -13.14819,10.31241 -13.14819,10.46709 0,0.11802 5.06229,10.09398 8.27366,16.30441 0.83416,1.61317 2.80765,5.45492 4.38555,8.53723 l 2.86889,5.6042 h 7.903182 7.90318 z m -85.693512,-12.4287 c 6.79836,-3.66214 14.05763,-7.56971 16.13171,-8.68349 2.07408,-1.11378 4.97581,-2.67688 6.4483,-3.47355 l 2.67725,-1.44848 -0.58222,-0.49664 c -0.32023,-0.27315 -1.24216,-1.09045 -2.04875,-1.81622 -0.80658,-0.72578 -2.97494,-2.57764 -4.81856,-4.11525 -3.41734,-2.85012 -15.31679,-12.811954 -20.42345,-17.097833 -2.40438,-2.01794 -2.84857,-2.31478 -2.98196,-1.99276 -0.0862,0.2081 -1.57662,8.910373 -3.31204,19.338373 -1.73542,10.42799 -3.43395,20.58125 -3.7745,22.56279 -0.34056,1.98155 -0.6192,3.79854 -0.6192,4.03776 0,0.39898 0.039,0.4105 0.47138,0.13934 0.25926,-0.16258 6.03368,-3.2919 12.83204,-6.95404 z M 189.1447,116.77337 c -4.64245,-25.804783 -4.26172,-23.798983 -4.50051,-23.710273 -0.28614,0.10629 -29.97223,25.577483 -29.96886,25.713813 0.002,0.0672 0.44947,0.36814 0.99513,0.66864 1.13993,0.62777 22.53374,12.16485 30.95101,16.69102 3.11111,1.67292 5.83943,3.16696 6.06294,3.32008 0.2235,0.15313 0.44162,0.24316 0.48471,0.20007 0.0431,-0.0431 -1.7679,-10.3406 -4.02442,-22.88335 z M 83.674338,112.99516 c 3.04061,-2.38302 6.01832,-4.71351 6.61714,-5.17886 0.59883,-0.46535 1.05979,-0.87508 1.02437,-0.9105 -0.0767,-0.0767 -23.32598,10.0911 -23.52186,10.28698 -0.0743,0.0743 2.22446,0.13514 5.10842,0.13514 h 5.24355 z m 57.066042,3.70039 c -2.232,-1.06217 -22.37073,-9.85391 -22.43183,-9.79281 -0.0325,0.0325 2.9164,2.39148 6.55315,5.24214 l 6.61227,5.18304 5.26171,-0.0171 5.26171,-0.0171 z m -75.717662,-9.84277 c 7.44239,-10.291684 15.42218,-21.310445 24.42722,-33.729933 8.29195,-11.436031 9.291434,-12.843218 9.192424,-12.942231 -0.0572,-0.05721 -0.554704,0.08932 -1.105544,0.325619 -0.55083,0.236301 -6.1867,2.570034 -12.52416,5.186072 -6.33745,2.616039 -14.25666,5.885062 -17.59822,7.264495 -3.34157,1.379434 -8.43249,3.48067 -11.31315,4.669414 -2.88066,1.188744 -8.82006,3.642332 -13.19867,5.452419 -4.37861,1.810086 -9.79949,4.043169 -12.0464,4.962405 -2.24692,0.919236 -4.14646,1.733307 -4.22121,1.809057 -0.0748,0.0757 1.00943,1.08984 2.40928,2.25355 1.39985,1.16372 5.51489,4.607129 9.14452,7.652029 16.52365,13.861694 19.75811,16.537804 19.91952,16.480864 0.0949,-0.0335 3.2064,-4.25618 6.91439,-9.38376 z m 90.820522,5.80972 c 2.3148,-1.98547 9.22053,-7.89524 15.34607,-13.132824 6.12555,-5.237589 11.13735,-9.578189 11.13735,-9.645799 0,-0.10042 -7.55988,-3.257178 -22.10253,-9.229277 -1.03704,-0.425871 -7.49496,-3.087024 -14.35094,-5.913672 -6.85597,-2.826648 -17.63984,-7.272535 -23.96415,-9.879749 -6.32431,-2.607214 -11.54458,-4.694552 -11.60061,-4.638529 -0.056,0.05602 0.41141,0.789564 1.03874,1.630091 1.11079,1.488292 5.46003,7.404795 16.29302,22.164245 2.91776,3.975313 5.79528,7.887771 6.39449,8.694361 0.5992,0.80659 4.51276,6.133189 8.6968,11.836903 8.91041,12.14675 8.6012,11.73328 8.77078,11.72817 0.0727,-0.002 2.02618,-1.62846 4.34098,-3.61392 z m -73.554112,-6.00974 c 8.98766,-3.94195 17.602244,-7.725064 19.143502,-8.406904 1.54125,-0.68184 3.05507,-1.23971 3.36403,-1.23971 0.30896,0 3.47891,1.28266 7.04434,2.85036 5.86571,2.579114 16.42026,7.213954 27.94777,12.272754 2.35728,1.03448 4.5492,2.017 4.87094,2.18338 0.32173,0.16637 0.58498,0.24416 0.58498,0.17285 0,-0.0713 -0.97571,-1.4643 -2.16824,-3.09554 -3.53812,-4.83974 -10.98306,-14.970294 -12.5211,-17.037853 -1.38467,-1.86137 -5.8433,-7.929918 -17.67532,-24.057537 -5.54323,-7.555701 -8.26611,-11.251956 -8.37778,-11.372677 -0.0573,-0.06189 -1.70181,2.190393 -13.734542,18.810023 -3.96268,5.473257 -9.69811,13.392461 -12.7454,17.598221 -3.0473,4.205769 -7.1419,9.862343 -9.09913,12.570163 -1.95723,2.70783 -3.82802,5.26685 -4.15731,5.68673 -0.3293,0.41987 -0.59873,0.81719 -0.59873,0.88294 0,0.14365 -1.74688,0.89719 18.12199,-7.8172 z M 31.303898,80.290008 c 3.49863,-2.741197 9.16906,-7.184698 12.60096,-9.874447 3.43189,-2.689748 6.20734,-4.92291 6.16767,-4.962582 -0.0397,-0.03967 -1.95196,0.533817 -4.24953,1.274418 -2.29757,0.740602 -7.94844,2.555103 -12.5575,4.032224 l -8.38011,2.685676 -0.10475,5.91453 c -0.0576,3.252992 -0.0447,5.91445 0.0287,5.914353 0.0734,-9.8e-5 2.99595,-2.242975 6.49458,-4.984172 z M 184.21219,79.420291 c 0,-3.378831 -0.0823,-5.904574 -0.19466,-5.974014 -0.10706,-0.06617 -5.22154,-1.730052 -11.36552,-3.697521 -13.66191,-4.374915 -13.81543,-4.422875 -13.89172,-4.339804 -0.0339,0.03688 3.61077,2.942471 8.09918,6.456878 4.48841,3.514408 10.15823,7.960908 12.5996,9.881113 2.44138,1.920204 4.50957,3.499331 4.59599,3.50917 0.0864,0.0098 0.15713,-2.616281 0.15713,-5.835822 z M 21.009588,64.218983 c 0,-10.082317 -0.0707,-18.329523 -0.15713,-18.327126 -0.0864,0.0024 -0.54844,0.591624 -1.02671,1.309392 -0.96031,1.441177 -3.55916,5.250188 -7.81448,11.453337 -1.53663,2.24 -2.8356895,4.232629 -2.8867995,4.428065 -0.081,0.309876 2.3576195,4.37711 10.2594595,17.110911 0.8044,1.296298 1.49925,2.356905 1.54411,2.356905 0.0448,0 0.0815,-8.249168 0.0815,-18.331484 z m 170.543492,12.57016 c 1.77157,-2.880661 4.38312,-7.113586 5.80346,-9.4065 1.42033,-2.292913 2.55569,-4.23483 2.52301,-4.315372 -0.0327,-0.08054 -1.41048,-2.116984 -3.06179,-4.525428 -1.65131,-2.408444 -4.31461,-6.302099 -5.91845,-8.652568 l -2.91607,-4.273578 v 18.404534 c 0,10.122494 0.0785,18.314972 0.17441,18.205507 0.0959,-0.109465 1.62387,-2.555933 3.39543,-5.436595 z M 40.807588,79.869904 c 2.76544,-1.146757 9.88329,-4.088571 15.81746,-6.537365 5.93416,-2.448794 14.65471,-6.050277 19.379,-8.003295 4.72428,-1.953019 10.11857,-4.175408 11.98731,-4.938642 1.86874,-0.763235 3.36844,-1.416963 3.33267,-1.45273 -0.0358,-0.03577 -6.92898,0.642712 -15.31825,1.507731 l -15.25323,1.572762 -1.41504,1.100309 c -0.77827,0.60517 -3.28608,2.567702 -5.57292,4.361182 -2.28683,1.79348 -7.269,5.693574 -11.07147,8.666875 -3.80248,2.973301 -7.055,5.5496 -7.22784,5.72511 -0.38986,0.395876 -0.91119,0.591236 5.34231,-2.001937 z m 132.712482,1.981072 c -0.16873,-0.154268 -4.21924,-3.330875 -9.00114,-7.059126 -4.7819,-3.728252 -10.40038,-8.120296 -12.48552,-9.760098 -2.63114,-2.069184 -4.00938,-3.018913 -4.50431,-3.103869 -1.1881,-0.203937 -29.78336,-3.066965 -29.8606,-2.989717 -0.0395,0.03952 3.72134,1.635479 8.35747,3.546584 4.63613,1.911104 17.0556,7.028856 27.59882,11.372782 10.54323,4.343927 19.31091,7.979755 19.48375,8.079618 0.48756,0.281698 0.75307,0.226099 0.41153,-0.08617 z M 38.783178,65.034497 c 5.91539,-1.899016 12.01819,-3.849277 13.56179,-4.333914 1.5436,-0.484636 2.8047,-0.928295 2.80243,-0.985908 -0.002,-0.05761 -6.34076,-3.617666 -14.08555,-7.911228 -7.74479,-4.293562 -14.57638,-8.090087 -15.18132,-8.436721 l -1.09989,-0.630244 V 56.12664 69.516799 l 1.62364,-0.514773 c 0.89301,-0.283125 6.46351,-2.068513 12.3789,-3.967529 z M 184.21219,56.048378 c 0,-7.316881 -0.0489,-13.30342 -0.10872,-13.30342 -0.0598,0 -4.13724,2.243062 -9.06099,4.984583 -4.92375,2.741521 -11.74751,6.536139 -15.1639,8.432483 -3.41639,1.896345 -6.18055,3.480606 -6.14257,3.520579 0.13225,0.139183 29.74553,9.629347 30.10955,9.6492 0.34553,0.01884 0.36663,-0.745552 0.36663,-13.283425 z"
       id="path1"
       inkscape:export-filename="path1.svg"
       inkscape:export-xdpi="300"
       inkscape:export-ydpi="300" /></g></svg>
