<svg xmlns="http://www.w3.org/2000/svg" viewBox="0 0 231 231"><path d="M33.83,33.83a115.5,115.5,0,1,1,0,163.34,115.49,115.49,0,0,1,0-163.34Z" style="fill:#8acf00;"/><path d="m115.5 51.75a63.75 63.75 0 0 0-10.5 126.63v14.09a115.5 115.5 0 0 0-53.729 19.027 115.5 115.5 0 0 0 128.46 0 115.5 115.5 0 0 0-53.729-19.029v-14.084a63.75 63.75 0 0 0 53.25-62.881 63.75 63.75 0 0 0-63.65-63.75 63.75 63.75 0 0 0-0.09961 0z" style="fill:#e6b876;"/><path d="m141.75 194.98a114.79 114.78 0 0 1 38 16.498 115.53 115.52 0 0 1-128.46 0 114.79 114.78 0 0 1 38-16.498l15.71 15.748h21z" style="fill:#ff0000;"/><path d="m70 200.88v20.77c-2.22-0.95325-4.3999-1.9698-6.5399-3.0496h-0.10088v-14.621c2.17-1.1 4.39-2.1399 6.64-3.0996z" style="fill:#fff;"/><path d="m161 200.88v20.77c1.9-0.80986 3.7702-1.6798 5.6201-2.5898l0.0989-0.0494 0.82005-0.40997h0.10088v-14.621c-2.17-1.1-4.39-2.1399-6.6402-3.0996z" style="fill:#fff;"/><polygon transform="matrix(1 0 0 .99987 4e-5 -3e-5)" points="97.32 201.93 115.5 223.72 133.68 201.93" style="fill:#141720;"/><path d="m111.2 230.88 1.31-16.908c0.32992 1.2798 5.6399 1.2798 5.9999 0l1.3201 16.938c-1.4301 0.0494-2.8601 0.089-4.3 0.089s-2.87 0-4.3-0.089z" style="fill:#141720;"/><path d="m115.49 201.79v0.0692l-7.55 12.678-7.0001 11.809-19.19-26.487c0.60999-0.42995 1.22-0.89985 1.8001-1.3899a52 51.993 0 0 0 10.07-10.619l21.79 13.878z" style="fill:#e7ecf2;"/><path d="m149.24 199.86-19.08 26.517-7.0001-11.809-7.57-12.678-0.0593-0.10086 21.94-13.998a52.21 52.203 0 0 0 10.08 10.699c0.58013 0.47009 1.1502 0.92002 1.7301 1.3399z" style="fill:#e7ecf2;"/><path d="m52.107 57.293c-1.3411 14.839-3.8707 52.771 1.3145 72.715-0.67572-43.829 12.389-70.177 62.078-70.187 49.689 0.010061 62.754 26.359 62.078 70.187 5.1852-19.944 2.6556-57.876 1.3145-72.715h-63.393-63.393z" style="fill:#53ffff;"/><path d="m52.339 30.629c-1.3825 24.448-2.1216 45.905-1.4497 66.517 9.4643-48.304 112.77-54.916 129.22 0 0.67191-20.612-0.3798-47.256-1.4928-66.517-32.241 14.296-91.346 18.861-126.28 0z" style="fill:#53ffff;"/><path d="m115.5 24.92c-22.25 0-44.5 4.2296-56.72 12.69-3.32 2.3-5.0602 6.4392-5.5903 10.269-0.45275 3.23-0.84043 6.7561-1.1785 10.461h126.98c-0.33704-3.7047-0.72492-7.2306-1.1775-10.461-0.53009-3.8301-2.2697-7.9992-5.5897-10.269-12.22-8.4601-34.47-12.69-56.72-12.69z" style="fill:none;"/><path d="m76.521 39.139c21.233 3.3965 33.116-13.392 37.59-31.72 4.3614 17.158 14.175 34.968 36.577 31.584-33.921 20.594-57.646 11.594-74.167 0.1345z" style="fill:none;"/><path d="m86.851 100.39a4.94 4.94 0 1 0 4.9297 5 5 5 0 0 0-4.9297-5zm57.221 0a4.94 4.94 0 1 0 4.9394 4.9394 4.94 4.94 0 0 0-4.9394-4.9394z" style="fill:#000;"/><path d="m86.207 89.365c-25.504 0-21.503 6.8561-21.035 19.596 0.80177 18.121 17.763 16.514 21.201 16.639 14.758-0.041 20.518-8.227 22.951-22.932 1.8166-10.731-9.251-13.174-23.117-13.303zm58.598 0c-13.866 0.1284-24.936 2.5717-23.119 13.303 2.4332 14.705 8.1936 22.891 22.951 22.932 3.4383-0.125 20.399 1.4828 21.201-16.639 0-18.965-0.47958-19.596-21.033-19.596z" style="fill:#ff23fa;opacity:0.39;"/><path d="m169.87 90.255a0.51 0.51 0 0 0-0.43991-0.52 167.64 167.64 0 0 0-22.6-1.6801c-12 0-27.47 3.7601-30.17 3.7601h-2.4c-1.2499 0-5.29-0.80996-10.45-1.6801a124.35 124.35 0 0 0-19.72-2.08 166.18 166.18 0 0 0-19.31 1.24c-1.56 0.17999-2.69 0.35009-3.2899 0.44009a0.51 0.51 0 0 0-0.44007 0.52l-0.091 6.4501a0.57 0.57 0 0 0 0.33012 0.52l0.73994 0.23992c1.08 0.41992 1.0001 19.85 6.78 24.71 3.4401 2.8599 6.51 4.4899 19.42 4.4899 7.4699 0 12.17-1.9999 16.63-8 3.21-4.32 6.0999-14.55 6.0999-14.55 0.82006-4.07 3.7702-4.52 4.43-4.5801h0.12068c0.11078 0 3.66 0.0593 4.57 4.5801 0 0 2.8599 10.22 6.0699 14.54 4.4601 5.9999 9.1601 8 16.63 8 12.91 0 16-1.63 19.42-4.4901 5.7898-4.86 5.6998-24.29 6.78-24.71l0.73994-0.23993a0.57 0.57 0 0 0 0.32996-0.52l-0.12068-6.4501zm-65 23c-1.9101 4.5-6.8 10.29-13.7 10.64-20.7 0.99985-21.65-4.7401-23-9.3201a31.45 31.45 0 0 1-1.2099-13.18c0.53997-4.5799 1.7-7.2699 3.7801-8.6201a9.3 9.3 0 0 1 4.3499-1.51 85.07 85.07 0 0 1 11.4-0.52 59.23 59.23 0 0 1 9.2099 0.69999c7.37 1.2 12.35 3.7001 12.35 6.1601a46.12 46.12 0 0 1-3.23 15.64zm58 1.3201c-1.34 4.5799-2.29 10.36-23 9.3201-6.91-0.3501-11.81-6.1401-13.71-10.64a46.35 46.35 0 0 1-3.22-15.64c0-3.39 9.43-6.8599 21.56-6.8599 12.13 0 14 0.89996 15.75 1.9999 2.08 1.3502 3.2398 4 3.77 8.6201a31.23 31.23 0 0 1-1.1601 13.17z" style="fill:#000;"/><path d="m123.07 154.05a10.61 10.61 0 0 1-15 0.14l-0.14-0.14" style="fill:none;stroke-linecap:round;stroke-linejoin:round;stroke-width:6.3px;stroke:#000;"/><path d="m120.1 142.22 0.19-0.11c3-1.87 5.45-2.4 7.3-1.46 2.15 1.1 3.12 3.84 4.84 5.5a5.18 5.18 0 0 0 6.68 0.73m-28.21-4.66-0.19-0.11c-3-1.87-5.45-2.4-7.3-1.46-2.15 1.1-3.12 3.84-4.84 5.5a5.18 5.18 0 0 1-6.68 0.73" style="fill:none;stroke-linecap:round;stroke-linejoin:round;stroke-width:5.9998px;stroke:#ececec;"/></svg>