<svg xmlns="http://www.w3.org/2000/svg" viewBox="0 0 231 231"><path d="M33.83,33.83a115.5,115.5,0,1,1,0,163.34,115.49,115.49,0,0,1,0-163.34Z" style="fill:#a09300;"/><path d="m115.5 51.75a63.75 63.75 0 0 0-10.5 126.63v14.09a115.5 115.5 0 0 0-53.729 19.027 115.5 115.5 0 0 0 128.46 0 115.5 115.5 0 0 0-53.729-19.029v-14.084a63.75 63.75 0 0 0 53.25-62.881 63.75 63.75 0 0 0-63.65-63.75 63.75 63.75 0 0 0-0.09961 0z" style="fill:#e8bc86;"/><path d="m141.75 195a114.79 114.79 0 0 1 38 16.5 115.53 115.53 0 0 1-128.46 0 114.79 114.79 0 0 1 38-16.5c0 10.76 11.75 19.48 26.25 19.48s26.25-8.72 26.25-19.48z" style="fill:#000;"/><path d="m137.38 11.148c-12.23 1.9593-18.511 14.606-43.436 9.4915-11.285-3.2054-16.406-3.573-20.389 0.58594-4.1548 4.3384-7.033 12.435-9.8184 21.706-2.1354 7.4136-3.7187 14.381-4.7461 21.646h112.7c-3.4878-24.293-10.822-43.281-25.182-51.061-3.5314-1.623-6.5274-2.2959-9.1289-2.3613z" style="fill:#333;"/><path d="m114.37 43.383c-19.445 0.088-38.524 2.0724-52.379 5.6992-1.2766 4.5795-2.4317 10.169-3.2285 16.807h113.11c-0.83731-6.0107-1.9164-11.674-3.3184-16.924-15.229-3.8842-34.873-5.6693-54.18-5.582z" style="fill:#afafaf;"/><path d="m115.5 55.773c-58.39 0-105.73 15.476-105.73 34.57h0.0312c0 11.295 16.496 21.319 42.126 27.627-0.10331-7.7704 2.788-21.904 5.2734-31.031 6.0935-1.7168 6.9294-1.8971 13.167-2.9919 14.874-2.8256 29.99-4.2037 45.133-4.1153 15.143-0.0884 30.259 1.2897 45.133 4.1153 6.2372 1.0947 7.2065 1.2751 13.3 2.9919 2.4854 9.1267 5.3768 23.26 5.2734 31.031 25.63-6.3082 41.993-16.332 41.993-27.627h0.0312c0-19.093-47.34-34.57-105.73-34.57z" style="fill:#222;"/><path d="m72.088 83.533c-6.9765 1.1147-13.357 2.856-18.439 4.3477-1.1861 7.415-2.0038 18.858-1.8926 26.293 4.3278-0.62795 10.155-1.3644 13.295-1.6465-0.40554 0.30198 2.7344-17.827 7.0371-28.994zm86.824 0c4.3028 11.167 7.4426 29.296 7.0371 28.994 3.1396 0.28213 8.9671 1.0185 13.295 1.6465 0.11119-7.4351-0.70652-18.878-1.8926-26.293-5.0822-1.4916-11.463-3.2329-18.439-4.3477z" style="fill:#6d3a1d;"/><line x1="85.29" x2="85.29" y1="98.73" y2="109.79" style="fill:none;stroke-linecap:round;stroke-linejoin:round;stroke-width:8.7999px;stroke:black;"/><path d="m108.28 72.16h62.18c9.19 0 13.32 1.21 14.71 8.52 3.61 18.95 2.2 33.49-0.44 43.75a65.07 65.07 0 0 1-5.89 14.78 73.52 73.52 0 0 1-7.06 10.26c-1.8 2.27-5.17 1.21-4.19-1.09 0.14-0.47 0.27-1 0.4-1.48a14.29 14.29 0 0 0 0.52-6.62 12.52 12.52 0 0 0-3.88-6.3c-4.17-3.9-12.81-8.71-32.53-13.66-6.4-1.6-10.69-2.24-11.76-2.79a7.08 7.08 0 0 1-3.85-6.31v-9c0-2.39 0.18-4.55-1.56-6.57s-4.16-2.13-6.65-2.14a6 6 0 0 1-6-6v-9.35a6 6 0 0 1 6-6z" style="fill:#008;opacity:0.67;"/><path d="m135.9 98.73v9.27m15.22-9.29v9.29" style="fill:none;stroke-linecap:round;stroke-linejoin:round;stroke-width:7.7998px;stroke:aqua;"/><polygon points="121.61 160.74 109.39 160.74 115.5 171.31" style="fill:#666;"/><path d="m132.64 144.06a34.42 34.42 0 0 1-34.24 0" style="fill:none;stroke-linecap:round;stroke-linejoin:round;stroke-width:5.9998px;stroke:#000;"/></svg>